<svg xmlns="http://www.w3.org/2000/svg" viewBox="0 0 800 600">
  <!-- Background -->
  <rect width="800" height="600" fill="white"/>
  
  <!-- Title -->
  <text x="400" y="30" text-anchor="middle" font-family="Arial" font-size="24" font-weight="bold">Activation Functions</text>
  
  <!-- Activation Function Graphs -->
  <g id="coordinate-system">
    <!-- X-axis -->
    <line x1="50" y1="200" x2="750" y2="200" stroke="black" stroke-width="1.5"/>
    <text x="750" y="220" font-family="Arial" font-size="14">x</text>
    
    <!-- Y-axis -->
    <line x1="400" y1="50" x2="400" y2="350" stroke="black" stroke-width="1.5"/>
    <text x="415" y="60" font-family="Arial" font-size="14">f(x)</text>
    
    <!-- X ticks -->
    <line x1="250" y1="195" x2="250" y2="205" stroke="black" stroke-width="1"/>
    <text x="250" y="220" text-anchor="middle" font-family="Arial" font-size="12">-2</text>
    
    <line x1="325" y1="195" x2="325" y2="205" stroke="black" stroke-width="1"/>
    <text x="325" y="220" text-anchor="middle" font-family="Arial" font-size="12">-1</text>
    
    <line x1="400" y1="195" x2="400" y2="205" stroke="black" stroke-width="1"/>
    <text x="400" y="220" text-anchor="middle" font-family="Arial" font-size="12">0</text>
    
    <line x1="475" y1="195" x2="475" y2="205" stroke="black" stroke-width="1"/>
    <text x="475" y="220" text-anchor="middle" font-family="Arial" font-size="12">1</text>
    
    <line x1="550" y1="195" x2="550" y2="205" stroke="black" stroke-width="1"/>
    <text x="550" y="220" text-anchor="middle" font-family="Arial" font-size="12">2</text>
    
    <!-- Y ticks -->
    <line x1="395" y1="125" x2="405" y2="125" stroke="black" stroke-width="1"/>
    <text x="385" y="130" text-anchor="end" font-family="Arial" font-size="12">1</text>
    
    <line x1="395" y1="275" x2="405" y2="275" stroke="black" stroke-width="1"/>
    <text x="385" y="280" text-anchor="end" font-family="Arial" font-size="12">-1</text>
  </g>
  
  <!-- Function Curves -->
  <g id="functions">
    <!-- ReLU -->
    <polyline points="100,200 400,200 700,50" fill="none" stroke="#FF4500" stroke-width="3"/>
    <text x="110" y="180" font-family="Arial" font-size="14" fill="#FF4500">ReLU</text>
    
    <!-- Leaky ReLU -->
    <polyline points="100,245 400,200 700,50" fill="none" stroke="#8A2BE2" stroke-width="3"/>
    <text x="110" y="270" font-family="Arial" font-size="14" fill="#8A2BE2">LeakyReLU</text>
    
    <!-- Sigmoid -->
    <path d="M 100,275 Q 250,275 325,250 T 400,200 T 475,150 T 550,125 T 700,125" fill="none" stroke="#228B22" stroke-width="3"/>
    <text x="620" y="145" font-family="Arial" font-size="14" fill="#228B22">Sigmoid</text>
    
    <!-- Tanh -->
    <path d="M 100,275 Q 250,275 325,250 T 400,200 T 475,150 T 550,125 Q 625,125 700,125" fill="none" stroke="#1E90FF" stroke-width="3"/>
    <text x="620" y="115" font-family="Arial" font-size="14" fill="#1E90FF">Tanh</text>
  </g>
  
  <!-- Neuron Activation Illustration -->
  <g id="neuron-activation">
    <rect x="50" y="400" width="700" height="150" rx="10" ry="10" fill="#f8f8f8" stroke="#666" stroke-width="1"/>
    
    <!-- Linear Input -->
    <circle cx="150" cy="475" r="25" fill="#d1e7ff" stroke="#0066cc" stroke-width="2"/>
    <text x="150" y="480" text-anchor="middle" font-family="Arial" font-size="14">z</text>
    
    <!-- Activation Function -->
    <rect x="250" y="450" width="100" height="50" rx="10" ry="10" fill="#ffe6cc" stroke="#ff9933" stroke-width="2"/>
    <text x="300" y="480" text-anchor="middle" font-family="Arial" font-size="14">f(z)</text>
    
    <!-- Activated Output -->
    <circle cx="450" cy="475" r="25" fill="#d8f3d8" stroke="#009900" stroke-width="2"/>
    <text x="450" y="480" text-anchor="middle" font-family="Arial" font-size="14">a</text>
    
    <!-- Next Layer -->
    <circle cx="550" cy="435" r="15" fill="#f9d6ff" stroke="#9933cc" stroke-width="1.5"/>
    <circle cx="550" cy="475" r="15" fill="#f9d6ff" stroke="#9933cc" stroke-width="1.5"/>
    <circle cx="550" cy="515" r="15" fill="#f9d6ff" stroke="#9933cc" stroke-width="1.5"/>
    <text x="600" y="475" text-anchor="middle" font-family="Arial" font-size="14">Next Layer</text>
    
    <!-- Connecting Arrows -->
    <g id="arrows" stroke="#333" stroke-width="1.5" fill="none" marker-end="url(#arrowhead)">
      <path d="M 175 475 L 250 475"/>
      <path d="M 350 475 L 425 475"/>
      <path d="M 475 475 L 535 435"/>
      <path d="M 475 475 L 535 475"/>
      <path d="M 475 475 L 535 515"/>
    </g>
  </g>
  
  <!-- Arrowhead definition -->
  <defs>
    <marker id="arrowhead" markerWidth="10" markerHeight="7" refX="9" refY="3.5" orient="auto">
      <polygon points="0 0, 10 3.5, 0 7" fill="#333"/>
    </marker>
  </defs>
  
  <!-- Legend -->
  <g id="legend">
    <rect x="600" y="260" width="150" height="130" rx="5" ry="5" fill="#f9f9f9" stroke="#666" stroke-width="1"/>
    <text x="675" y="280" text-anchor="middle" font-family="Arial" font-size="16" font-weight="bold">Properties</text>
    
    <line x1="610" y1="300" x2="630" y2="300" stroke="#FF4500" stroke-width="3"/>
    <text x="635" y="305" font-family="Arial" font-size="14">Simple</text>
    
    <line x1="610" y1="325" x2="630" y2="325" stroke="#8A2BE2" stroke-width="3"/>
    <text x="635" y="330" font-family="Arial" font-size="14">No dead neurons</text>
    
    <line x1="610" y1="350" x2="630" y2="350" stroke="#228B22" stroke-width="3"/>
    <text x="635" y="355" font-family="Arial" font-size="14">Bounded [0,1]</text>
    
    <line x1="610" y1="375" x2="630" y2="375" stroke="#1E90FF" stroke-width="3"/>
    <text x="635" y="380" font-family="Arial" font-size="14">Zero-centered</text>
  </g>
</svg>