<svg xmlns="http://www.w3.org/2000/svg" viewBox="0 0 800 600">
  <!-- Background -->
  <rect width="800" height="600" fill="white"/>
  
  <!-- Title -->
  <text x="400" y="30" text-anchor="middle" font-family="Arial" font-size="24" font-weight="bold">Neural Network Layers</text>
  
  <!-- Dense Layer Architecture -->
  <g id="dense-layer">
    <rect x="50" y="80" width="700" height="220" fill="#f9f9f9" stroke="#666" stroke-width="1"/>
    
    <!-- Main Title -->
    <text x="400" y="105" text-anchor="middle" font-family="Arial" font-size="18" font-weight="bold">Dense Layer Architecture</text>
    
    <!-- Input Neurons -->
    <g id="input-neurons">
      <text x="110" y="135" text-anchor="middle" font-family="Arial" font-size="14" font-weight="bold">Input</text>
      <circle cx="110" cy="160" r="15" fill="#6495ED" stroke="black" stroke-width="1.5"/>
      <circle cx="110" cy="200" r="15" fill="#6495ED" stroke="black" stroke-width="1.5"/>
      <circle cx="110" cy="240" r="15" fill="#6495ED" stroke="black" stroke-width="1.5"/>
      <circle cx="110" cy="280" r="15" fill="#6495ED" stroke="black" stroke-width="1.5"/>
      <text x="85" y="240" text-anchor="end" font-family="Arial" font-size="12">x₁...xₙ</text>
    </g>
    
    <!-- Weights -->
    <g id="weights" stroke="#999999" stroke-width="1">
      <!-- Connect each input to each output -->
      <line x1="125" y1="160" x2="275" y2="160"/>
      <line x1="125" y1="160" x2="275" y2="200"/>
      <line x1="125" y1="160" x2="275" y2="240"/>
      <line x1="125" y1="160" x2="275" y2="280"/>
      
      <line x1="125" y1="200" x2="275" y2="160"/>
      <line x1="125" y1="200" x2="275" y2="200"/>
      <line x1="125" y1="200" x2="275" y2="240"/>
      <line x1="125" y1="200" x2="275" y2="280"/>
      
      <line x1="125" y1="240" x2="275" y2="160"/>
      <line x1="125" y1="240" x2="275" y2="200"/>
      <line x1="125" y1="240" x2="275" y2="240"/>
      <line x1="125" y1="240" x2="275" y2="280"/>
      
      <line x1="125" y1="280" x2="275" y2="160"/>
      <line x1="125" y1="280" x2="275" y2="200"/>
      <line x1="125" y1="280" x2="275" y2="240"/>
      <line x1="125" y1="280" x2="275" y2="280"/>
      
      <text x="200" y="145" text-anchor="middle" font-family="Arial" font-size="14" font-weight="bold">Weights</text>
      <text x="200" y="160" text-anchor="middle" font-family="Arial" font-size="12">W₁₁...Wᵢⱼ</text>
    </g>
    
    <!-- Pre-activation -->
    <g id="preactivation">
      <text x="300" y="135" text-anchor="middle" font-family="Arial" font-size="14" font-weight="bold">Pre-activation</text>
      <circle cx="290" cy="160" r="15" fill="#FFA07A" stroke="black" stroke-width="1.5"/>
      <circle cx="290" cy="200" r="15" fill="#FFA07A" stroke="black" stroke-width="1.5"/>
      <circle cx="290" cy="240" r="15" fill="#FFA07A" stroke="black" stroke-width="1.5"/>
      <circle cx="290" cy="280" r="15" fill="#FFA07A" stroke="black" stroke-width="1.5"/>
      <text x="330" y="240" font-family="Arial" font-size="12">z = Wx + b</text>
      
      <!-- Bias arrows -->
      <g stroke="#FF9933" stroke-width="2" stroke-dasharray="3,2">
        <line x1="240" y1="190" x2="275" y2="160"/>
        <line x1="240" y1="190" x2="275" y2="200"/>
        <line x1="240" y1="190" x2="275" y2="240"/>
        <line x1="240" y1="190" x2="275" y2="280"/>
      </g>
      <text x="240" y="180" text-anchor="middle" font-family="Arial" font-size="12" fill="#FF9933">Biases</text>
    </g>
    
    <!-- Activation -->
    <g id="activation-function">
      <text x="420" y="135" text-anchor="middle" font-family="Arial" font-size="14" font-weight="bold">Activation</text>
      <rect x="370" y="145" width="100" height="150" rx="10" ry="10" fill="#e6e6ff" stroke="#3333cc" stroke-width="2"/>
      <text x="420" y="210" text-anchor="middle" font-family="Arial" font-size="16">f(z)</text>
      <text x="420" y="230" text-anchor="middle" font-family="Arial" font-size="12">(ReLU, Sigmoid, etc.)</text>
      
      <!-- Connect pre-activation to activation function -->
      <line x1="305" y1="160" x2="370" y2="160" stroke="#000000" stroke-width="1"/>
      <line x1="305" y1="200" x2="370" y2="200" stroke="#000000" stroke-width="1"/>
      <line x1="305" y1="240" x2="370" y2="240" stroke="#000000" stroke-width="1"/>
      <line x1="305" y1="280" x2="370" y2="280" stroke="#000000" stroke-width="1"/>
    </g>
    
    <!-- Output -->
    <g id="output-neurons">
      <text x="530" y="135" text-anchor="middle" font-family="Arial" font-size="14" font-weight="bold">Output</text>
      <circle cx="530" cy="160" r="15" fill="#90EE90" stroke="black" stroke-width="1.5"/>
      <circle cx="530" cy="200" r="15" fill="#90EE90" stroke="black" stroke-width="1.5"/>
      <circle cx="530" cy="240" r="15" fill="#90EE90" stroke="black" stroke-width="1.5"/>
      <circle cx="530" cy="280" r="15" fill="#90EE90" stroke="black" stroke-width="1.5"/>
      <text x="560" y="240" font-family="Arial" font-size="12">a = f(z)</text>
      
      <!-- Connect activation function to output -->
      <line x1="470" y1="160" x2="515" y2="160" stroke="#000000" stroke-width="1"/>
      <line x1="470" y1="200" x2="515" y2="200" stroke="#000000" stroke-width="1"/>
      <line x1="470" y1="240" x2="515" y2="240" stroke="#000000" stroke-width="1"/>
      <line x1="470" y1="280" x2="515" y2="280" stroke="#000000" stroke-width="1"/>
    </g>
    
    <!-- Next Layer -->
    <g id="next-layer">
      <text x="650" y="135" text-anchor="middle" font-family="Arial" font-size="14" font-weight="bold">Next Layer</text>
      <circle cx="650" cy="160" r="15" fill="#d8d8d8" stroke="black" stroke-width="1.5" stroke-dasharray="3,2"/>
      <circle cx="650" cy="200" r="15" fill="#d8d8d8" stroke="black" stroke-width="1.5" stroke-dasharray="3,2"/>
      <circle cx="650" cy="240" r="15" fill="#d8d8d8" stroke="black" stroke-width="1.5" stroke-dasharray="3,2"/>
      <circle cx="650" cy="280" r="15" fill="#d8d8d8" stroke="black" stroke-width="1.5" stroke-dasharray="3,2"/>
      
      <!-- Connect output to next layer -->
      <line x1="545" y1="160" x2="635" y2="160" stroke="#000000" stroke-width="1" stroke-dasharray="4,2"/>
      <line x1="545" y1="200" x2="635" y2="200" stroke="#000000" stroke-width="1" stroke-dasharray="4,2"/>
      <line x1="545" y1="240" x2="635" y2="240" stroke="#000000" stroke-width="1" stroke-dasharray="4,2"/>
      <line x1="545" y1="280" x2="635" y2="280" stroke="#000000" stroke-width="1" stroke-dasharray="4,2"/>
    </g>
    
    <!-- Forward arrow -->
    <path d="M 375 105 L 425 105" stroke="#3366CC" stroke-width="2" marker-end="url(#arrowhead-blue)"/>
    <text x="400" y="95" font-family="Arial" font-size="12" fill="#3366CC">Forward Pass</text>
  </g>
  
  <!-- Backpropagation Flow -->
  <g id="backpropagation">
    <rect x="50" y="320" width="700" height="230" fill="#f8f8f8" stroke="#666" stroke-width="1"/>
    
    <!-- Section title -->
    <text x="400" y="345" text-anchor="middle" font-family="Arial" font-size="18" font-weight="bold">Backpropagation Through Layer</text>
    
    <!-- Computation Boxes -->
    <g id="backward-computation">
      <!-- Output Gradient -->
      <rect x="550" y="370" width="150" height="40" rx="5" ry="5" fill="#e6f9e6" stroke="#009933" stroke-width="2"/>
      <text x="625" y="395" text-anchor="middle" font-family="Arial" font-size="14">∂L/∂a</text>
      
      <!-- Activation Backward -->
      <rect x="370" y="370" width="150" height="40" rx="5" ry="5" fill="#e6e6ff" stroke="#3333cc" stroke-width="2"/>
      <text x="445" y="395" text-anchor="middle" font-family="Arial" font-size="14">∂L/∂z = ∂L/∂a ⊙ f'(z)</text>
      
      <!-- Gradient Flow -->
      <g id="gradient-flow">
        <!-- From output gradient to activation backward -->
        <line x1="550" y1="390" x2="520" y2="390" stroke="#000000" stroke-width="1"/>
        
        <!-- From activation backward to three branches -->
        <line x1="370" y1="390" x2="350" y2="390" stroke="#000000" stroke-width="1"/>
        <line x1="350" y1="390" x2="350" y2="440" stroke="#000000" stroke-width="1"/>
        <line x1="350" y1="390" x2="350" y2="490" stroke="#000000" stroke-width="1"/>
        
        <!-- To weight gradients, bias gradients, and input gradients -->
        <line x1="350" y1="390" x2="240" y2="390" stroke="#000000" stroke-width="1"/>
        <line x1="350" y1="440" x2="240" y2="440" stroke="#000000" stroke-width="1"/>
        <line x1="350" y1="490" x2="240" y2="490" stroke="#000000" stroke-width="1"/>
      </g>
      
      <!-- Weight Gradients -->
      <rect x="90" y="370" width="150" height="40" rx="5" ry="5" fill="#ffd9d9" stroke="#cc3333" stroke-width="2"/>
      <text x="165" y="395" text-anchor="middle" font-family="Arial" font-size="14">∂L/∂W = ∂L/∂z · x^T</text>
      
      <!-- Bias Gradients -->
      <rect x="90" y="420" width="150" height="40" rx="5" ry="5" fill="#ffd9d9" stroke="#cc3333" stroke-width="2"/>
      <text x="165" y="445" text-anchor="middle" font-family="Arial" font-size="14">∂L/∂b = ∂L/∂z</text>
      
      <!-- Input Gradients -->
      <rect x="90" y="470" width="150" height="40" rx="5" ry="5" fill="#d9eeff" stroke="#0066cc" stroke-width="2"/>
      <text x="165" y="495" text-anchor="middle" font-family="Arial" font-size="14">∂L/∂x = W^T · ∂L/∂z</text>
    </g>
    
    <!-- Parameter Updates -->
    <g id="parameter-updates">
      <text x="160" y="530" text-anchor="middle" font-family="Arial" font-size="14" font-weight="bold">For Optimizer</text>
      <path d="M 165 500 L 165 515" stroke="#cc3333" stroke-width="2" marker-end="url(#arrowhead-red)"/>
      
      <!-- Previous Layer Input -->
      <text x="475" y="530" text-anchor="middle" font-family="Arial" font-size="14" font-weight="bold">To Previous Layer</text>
      <path d="M 165 490 L 475 490" stroke="#0066cc" stroke-width="2" marker-end="url(#arrowhead-blue)"/>
    </g>
    
    <!-- Backward arrow -->
    <path d="M 425 345 L 375 345" stroke="#cc3333" stroke-width="2" marker-end="url(#arrowhead-red)"/>
    <text x="400" y="335" font-family="Arial" font-size="12" fill="#cc3333">Backward Pass</text>
  </g>
  
  <!-- Arrowhead definitions -->
  <defs>
    <marker id="arrowhead-blue" markerWidth="10" markerHeight="7" refX="9" refY="3.5" orient="auto">
      <polygon points="0 0, 10 3.5, 0 7" fill="#3366CC"/>
    </marker>
    <marker id="arrowhead-red" markerWidth="10" markerHeight="7" refX="9" refY="3.5" orient="auto">
      <polygon points="0 0, 10 3.5, 0 7" fill="#cc3333"/>
    </marker>
  </defs>
</svg>